export class Logo {
        }export class Logo {
        }<?xml version="1.0" standalone="no"?>
<!DOCTYPE svg PUBLIC "-//W3C//DTD SVG 20010904//EN"
        "http://www.w3.org/TR/2001/REC-SVG-20010904/DTD/svg10.dtd">
<svg version="1.0" xmlns="http://www.w3.org/2000/svg"
     width="200.000000pt" height="200.000000pt" viewBox="0 0 200.000000 200.000000"
     preserveAspectRatio="xMidYMid meet">

    <g transform="translate(0.000000,200.000000) scale(0.100000,-0.100000)"
       fill="#1f2021" stroke="none">
        <path d="M1605 1788 c-16 -6 -32 -12 -33 -14 -2 -1 27 -44 64 -96 37 -51 69
-95 70 -97 2 -1 7 0 13 3 13 8 -59 216 -74 215 -5 0 -23 -5 -40 -11z"/>
        <path d="M1258 1682 l-86 -27 64 -90 c36 -50 68 -93 72 -97 8 -8 171 38 185
52 11 10 -120 190 -136 189 -7 0 -51 -12 -99 -27z"/>
        <path d="M882 1565 c-41 -13 -76 -26 -79 -28 -2 -3 26 -48 64 -99 l69 -95 84
27 c47 14 85 31 85 37 0 19 -123 183 -137 183 -7 -1 -46 -12 -86 -25z"/>
        <path d="M483 1441 l-83 -28 71 -97 c48 -65 76 -95 85 -92 8 3 47 15 87 27 40
12 75 25 80 28 12 11 -122 191 -141 190 -10 -1 -54 -13 -99 -28z"/>
        <path d="M223 1268 c25 -68 32 -104 36 -198 l6 -115 38 95 c20 53 37 101 37
108 0 14 -131 192 -141 192 -3 0 8 -37 24 -82z"/>
        <path d="M530 1103 c-11 -32 -32 -88 -46 -125 l-26 -68 -99 0 -99 0 0 -355 0
-355 775 0 775 0 0 480 c0 382 -3 480 -13 480 -7 0 -32 -53 -57 -122 l-45
-123 -103 -3 -104 -3 8 23 c3 13 24 69 44 126 l38 103 -107 -3 -106 -3 -44
-122 -44 -123 -105 0 c-95 0 -104 2 -97 18 4 9 24 65 46 125 l38 107 -98 0
-98 0 -45 -122 -46 -123 -101 -3 c-60 -2 -101 1 -101 7 0 5 18 58 40 118 22
59 40 111 40 116 0 4 -45 7 -99 7 l-100 0 -21 -57z m410 -353 c0 -5 -4 -10
-10 -10 -5 0 -10 5 -10 10 0 6 5 10 10 10 6 0 10 -4 10 -10z m-454 -35 l27
-36 29 36 c46 56 58 48 58 -40 0 -43 -4 -75 -10 -75 -6 0 -10 27 -10 62 l0 61
-33 -38 -33 -38 -32 37 -32 37 0 -61 c0 -33 -4 -60 -10 -60 -6 0 -10 32 -10
75 0 87 13 96 56 40z m768 19 c12 -31 6 -63 -14 -77 -18 -13 -19 -16 -5 -27 8
-7 15 -16 15 -21 0 -17 -22 -9 -42 16 -13 16 -29 25 -49 25 -24 0 -29 -4 -29
-25 0 -16 -6 -25 -15 -25 -12 0 -15 15 -15 75 l0 75 74 0 c58 0 75 -3 80 -16z
m-516 -71 l-3 -58 -55 0 -55 0 -3 58 -3 57 61 0 61 0 -3 -57z m64 11 l25 -46
27 46 c23 40 46 59 46 40 0 -16 -63 -114 -73 -114 -7 0 -27 27 -45 60 -23 42
-29 60 -19 60 7 0 25 -21 39 -46z m138 -14 c0 -33 -4 -60 -10 -60 -6 0 -10 27
-10 60 0 33 4 60 10 60 6 0 10 -27 10 -60z m148 23 l3 -33 -55 0 c-43 0 -56
-3 -56 -15 0 -12 13 -15 55 -15 32 0 55 -4 55 -10 0 -7 -24 -10 -62 -8 l-63 3
-3 44 c-5 68 0 72 65 69 57 -3 58 -3 61 -35z m307 -23 l0 -55 -60 0 -60 0 -3
44 c-5 68 0 72 65 69 l58 -3 0 -55z m139 44 c11 -28 6 -81 -8 -93 -8 -7 -36
-11 -63 -9 l-48 3 -3 44 c-5 65 0 71 62 71 40 0 55 -4 60 -16z m204 -46 c2
-36 -1 -58 -8 -58 -5 0 -10 22 -10 50 0 49 -1 50 -30 50 -29 0 -30 -1 -30 -50
0 -38 -4 -50 -15 -50 -11 0 -15 12 -15 50 0 49 -1 50 -30 50 -29 0 -30 -1 -30
-50 0 -27 -4 -50 -10 -50 -6 0 -10 27 -10 60 l0 61 93 -3 92 -3 3 -57z m-799
-202 c14 -17 11 -161 -4 -161 -5 0 -11 15 -13 33 l-3 32 -65 0 -64 0 0 -36 c0
-21 -4 -33 -10 -29 -11 7 -14 158 -3 168 13 14 150 8 162 -7z m169 -81 c4 -71
-9 -85 -75 -85 -39 0 -43 -2 -43 -25 0 -14 -4 -25 -10 -25 -6 0 -10 40 -10
100 l0 101 68 -3 67 -3 3 -60z m150 53 c7 -7 12 -36 12 -65 0 -61 -13 -73 -79
-73 -37 0 -41 -2 -41 -25 0 -16 -6 -25 -15 -25 -12 0 -15 17 -15 93 0 52 3 97
7 100 11 12 118 8 131 -5z"/>
        <path d="M1130 705 c0 -23 3 -25 50 -25 47 0 50 2 50 25 0 23 -3 25 -50 25
-47 0 -50 -2 -50 -25z"/>
        <path d="M640 660 l0 -40 40 0 40 0 0 40 0 40 -40 0 -40 0 0 -40z"/>
        <path d="M980 685 c0 -11 11 -15 40 -15 29 0 40 4 40 15 0 11 -11 15 -40 15
-29 0 -40 -4 -40 -15z"/>
        <path d="M1292 663 c3 -36 5 -38 41 -41 l37 -3 0 40 0 41 -41 0 -40 0 3 -37z"/>
        <path d="M1430 660 l0 -40 40 0 40 0 0 40 0 40 -40 0 -40 0 0 -40z"/>
        <path d="M800 415 l0 -35 60 0 60 0 0 35 0 35 -60 0 -60 0 0 -35z"/>
        <path d="M990 365 l0 -45 50 0 50 0 0 45 0 45 -50 0 -50 0 0 -45z"/>
        <path d="M1150 365 l0 -45 45 0 45 0 0 45 0 45 -45 0 -45 0 0 -45z"/>
    </g>
</svg>
